<?xml version="1.0" encoding="UTF-8" standalone="no"?>
<!DOCTYPE svg PUBLIC "-//W3C//DTD SVG 1.1//EN" "http://www.w3.org/Graphics/SVG/1.1/DTD/svg11.dtd">
<svg xmlns="http://www.w3.org/2000/svg" version="1.1" viewBox="0.00 0.00 500.00 500.00">
<g stroke-width="2.00" fill="none" stroke-linecap="butt">
<path stroke="#e6e6e5" vector-effect="non-scaling-stroke" d="
  M 215.62 205.71
  Q 207.89 198.69 206.31 189.51
  C 205.76 186.31 206.18 182.18 205.98 178.51"
/>
<path stroke="#e6e6e5" vector-effect="non-scaling-stroke" d="
  M 250.12 402.07
  L 249.96 350.04"
/>
<path stroke="#e6e6e5" vector-effect="non-scaling-stroke" d="
  M 250.16 333.15
  L 250.08 316.23"
/>
</g>
<path fill="#fdfdfd" d="
  M 346.23 105.67
  C 343.99 111.61 342.48 117.79 340.40 123.82
  Q 339.61 126.10 337.90 127.82
  C 335.04 130.71 332.79 132.87 329.11 136.13
  C 324.51 140.20 320.65 144.60 315.15 149.78
  Q 314.76 150.14 314.39 149.76
  L 306.01 141.09
  Q 305.58 140.65 305.98 140.19
  C 308.29 137.56 311.54 135.04 313.50 133.14
  Q 317.09 129.65 320.62 126.09
  C 322.31 124.40 325.04 121.32 325.95 119.05
  C 327.98 114.00 329.96 109.33 331.90 103.91
  Q 334.36 97.06 337.30 90.35
  A 0.81 0.80 7.6 0 1 337.94 89.87
  L 348.35 88.42
  Q 348.88 88.35 349.28 88.69
  Q 358.08 96.26 363.81 102.68
  Q 369.61 109.17 373.68 112.82
  Q 381.19 119.55 384.05 122.96
  Q 387.45 127.01 389.21 128.69
  Q 389.57 129.04 389.63 129.54
  L 390.55 136.73
  Q 390.59 137.02 390.31 137.13
  C 379.24 141.54 368.19 145.40 357.29 150.04
  C 353.00 151.87 348.03 156.43 344.07 160.54
  Q 338.24 166.58 331.05 173.39
  Q 330.45 173.96 329.86 173.37
  Q 326.65 170.07 323.14 166.35
  Q 321.13 164.22 322.83 162.41
  Q 325.09 160.01 327.56 157.90
  C 333.33 152.98 338.84 147.58 344.04 142.07
  C 346.24 139.74 348.82 136.81 352.04 136.03
  C 358.48 134.46 364.32 132.40 370.49 130.12
  Q 371.09 129.90 370.65 129.43
  Q 366.83 125.33 362.94 121.23
  C 358.29 116.33 352.08 110.99 346.93 105.53
  A 0.42 0.42 0.0 0 0 346.23 105.67
  Z"
/>
<path fill="#fdfdfd" d="
  M 215.62 205.71
  Q 207.89 198.69 206.31 189.51
  C 205.76 186.31 206.18 182.18 205.98 178.51
  C 212.40 170.68 218.86 162.71 226.62 157.70
  C 234.87 152.37 241.99 147.35 252.10 144.33
  Q 252.57 144.19 252.96 144.49
  Q 259.70 149.80 266.49 154.94
  Q 267.31 155.56 268.64 156.33
  C 272.73 158.70 276.28 161.67 280.20 164.29
  Q 280.53 164.50 280.82 164.24
  L 291.32 154.79
  Q 291.90 154.26 292.46 154.82
  L 306.44 168.78
  Q 306.84 169.19 306.45 169.61
  Q 303.38 172.91 300.49 176.22
  C 299.72 177.10 298.41 177.74 297.56 178.60
  C 291.75 184.46 284.67 190.31 279.81 196.91
  Q 279.46 197.38 279.87 197.80
  L 287.86 206.16
  Q 288.51 206.84 289.21 206.19
  L 310.52 186.14
  Q 310.91 185.78 311.27 186.17
  Q 318.25 193.80 322.40 196.61
  Q 326.95 199.69 331.52 202.79
  Q 331.95 203.08 331.52 203.38
  C 323.77 208.70 315.83 214.60 307.41 218.76
  C 304.66 220.12 301.83 222.05 299.45 223.23
  Q 276.23 234.78 250.09 231.69
  Q 249.58 231.63 249.98 231.31
  C 253.69 228.35 257.22 225.62 260.28 221.77
  C 261.88 219.76 263.83 217.94 265.14 215.94
  Q 273.81 202.78 275.70 186.10
  Q 275.79 185.28 274.97 185.28
  Q 268.36 185.32 261.36 186.79
  Q 247.32 189.74 241.24 192.66
  Q 234.66 195.83 227.80 198.31
  Q 223.70 199.80 215.62 205.71
  Z"
/>
<path fill="#cfcecc" d="
  M 160.03 199.05
  Q 159.60 199.22 159.59 198.76
  L 159.51 183.61
  Q 159.51 183.09 159.93 182.80
  C 164.29 179.76 169.90 177.43 173.60 175.30
  Q 186.55 167.86 199.51 160.43
  Q 199.97 160.17 200.36 160.53
  Q 200.71 160.85 200.36 161.18
  C 198.30 163.12 197.11 165.80 195.67 167.68
  Q 187.81 177.95 182.71 189.88
  Q 182.51 190.35 182.03 190.54
  L 160.03 199.05
  Z"
/>
<path fill="#cfcecc" d="
  M 338.04 188.95
  L 327.06 180.40
  A 0.31 0.31 0.0 0 1 327.05 179.91
  L 337.98 171.28
  A 0.31 0.31 0.0 0 1 338.48 171.52
  L 338.54 188.71
  A 0.31 0.31 0.0 0 1 338.04 188.95
  Z"
/>
<path fill="#cfcecc" d="
  M 205.98 178.51
  C 206.18 182.18 205.76 186.31 206.31 189.51
  Q 207.89 198.69 215.62 205.71
  L 197.40 219.64
  Q 196.97 219.97 196.47 219.73
  L 190.15 216.67
  Q 189.25 216.23 189.48 215.26
  C 192.52 202.19 198.15 189.36 205.98 178.51
  Z"
/>
<path fill="#fdfdfd" d="
  M 200.67 238.97
  C 204.19 240.88 207.79 242.75 211.35 244.60
  Q 211.76 244.81 211.76 245.28
  L 211.74 278.70
  A 0.25 0.25 0.0 0 1 211.37 278.92
  L 115.52 227.52
  Q 115.08 227.29 115.08 226.79
  L 115.11 193.51
  A 0.33 0.33 0.0 0 1 115.59 193.21
  C 129.42 199.82 142.15 206.64 157.90 215.99
  C 160.73 217.67 164.11 218.88 166.67 220.30
  Q 183.65 229.67 200.67 238.97
  Z"
/>
<path fill="#cfcecc" d="
  M 250.18 278.58
  A 1.88 1.86 -44.7 0 0 248.47 278.58
  L 228.79 288.54
  A 1.75 1.75 0.0 0 1 226.25 286.98
  L 226.28 244.73
  Q 226.28 243.70 227.29 243.93
  C 247.41 248.60 271.25 249.03 290.74 242.17
  C 295.40 240.53 299.65 239.33 303.69 237.28
  Q 315.42 231.33 320.56 227.82
  Q 330.01 221.37 334.11 219.36
  Q 339.22 216.84 342.35 214.87
  C 350.24 209.90 358.34 205.31 366.29 200.43
  C 369.91 198.20 374.23 196.38 378.11 194.06
  A 0.50 0.49 74.6 0 1 378.86 194.49
  L 378.88 227.45
  Q 378.88 227.91 378.48 228.14
  L 270.36 288.22
  Q 269.88 288.49 269.26 288.17
  L 250.18 278.58
  Z"
/>
<path fill="#fdfdfd" d="
  M 166.30 288.07
  L 115.35 260.68
  A 0.40 0.40 0.0 0 1 115.14 260.33
  L 115.09 244.67
  A 0.40 0.40 0.0 0 1 115.68 244.31
  L 166.66 271.31
  A 0.40 0.40 0.0 0 1 166.87 271.66
  L 166.89 287.72
  A 0.40 0.40 0.0 0 1 166.30 288.07
  Z"
/>
<path fill="#cfcecc" d="
  M 378.60 261.72
  L 332.08 287.82
  A 0.55 0.55 0.0 0 1 331.26 287.35
  L 331.14 271.74
  A 0.55 0.55 0.0 0 1 331.42 271.26
  L 378.05 245.09
  A 0.55 0.55 0.0 0 1 378.87 245.57
  L 378.88 261.24
  A 0.55 0.55 0.0 0 1 378.60 261.72
  Z"
/>
<path fill="#fdfdfd" d="
  M 115.06 328.22
  L 115.08 278.29
  A 0.49 0.49 0.0 0 1 115.80 277.85
  L 142.35 291.71
  A 0.49 0.49 0.0 0 1 142.61 292.15
  L 142.59 343.04
  A 0.49 0.49 0.0 0 1 141.86 343.46
  L 115.31 328.65
  A 0.49 0.49 0.0 0 1 115.06 328.22
  Z"
/>
<path fill="#cfcecc" d="
  M 250.12 402.07
  L 249.96 350.04
  C 267.33 340.63 285.21 330.55 304.55 319.80
  Q 312.17 315.56 319.66 311.11
  C 328.41 305.91 338.57 301.13 346.47 296.57
  Q 357.31 290.31 368.14 284.05
  C 371.19 282.28 374.75 280.99 377.91 279.18
  Q 378.88 278.63 378.88 279.75
  L 378.88 328.94
  Q 378.88 329.43 378.45 329.67
  C 369.47 334.66 361.12 339.96 351.73 344.63
  C 347.40 346.78 342.86 349.95 339.30 351.94
  C 333.37 355.27 327.46 358.55 321.68 362.14
  C 318.96 363.84 315.69 365.00 313.22 366.45
  C 300.30 374.00 287.50 381.43 274.20 388.57
  C 265.72 393.12 258.07 398.31 250.12 402.07
  Z"
/>
<path fill="#cfcecc" d="
  M 250.16 333.15
  L 250.08 316.23
  Q 260.97 310.13 271.98 303.78
  C 273.51 302.90 275.88 302.11 277.71 301.06
  Q 293.42 292.10 309.08 283.07
  C 311.25 281.82 313.73 281.09 316.05 279.95
  Q 316.59 279.69 316.59 280.29
  L 316.65 295.75
  Q 316.65 296.31 316.16 296.58
  L 250.16 333.15
  Z"
/>
<path fill="#fdfdfd" d="
  M 250.08 316.23
  L 250.16 333.15
  Q 241.08 328.33 232.09 323.27
  C 230.69 322.48 228.80 322.12 227.59 321.43
  C 217.24 315.53 206.39 310.16 196.29 303.92
  C 194.38 302.73 192.09 302.17 190.30 301.17
  Q 186.33 298.95 182.27 296.83
  A 0.93 0.92 13.8 0 1 181.77 296.01
  L 181.75 280.73
  Q 181.75 280.10 182.34 280.34
  C 184.40 281.18 186.59 281.83 188.53 282.91
  C 198.96 288.73 209.63 294.18 219.92 300.21
  C 222.67 301.83 225.91 302.91 228.39 304.24
  Q 239.24 310.10 250.08 316.23
  Z"
/>
<path fill="#fdfdfd" d="
  M 249.96 350.04
  L 250.12 402.07
  L 158.29 351.59
  A 1.54 1.53 14.6 0 1 157.50 350.25
  L 157.50 300.77
  Q 157.50 300.27 157.93 300.53
  C 160.54 302.09 163.56 302.88 165.95 304.22
  Q 182.03 313.20 198.18 322.05
  C 199.33 322.68 200.96 323.23 202.27 323.94
  Q 215.54 331.18 228.76 338.53
  C 234.55 341.75 243.06 345.85 249.96 350.04
  Z"
/>
</svg>
